<?xml version="1.0" encoding="utf-8"?>
<svg width="282px" height="390px" viewBox="0 0 282 390" version="1.1" xmlns:xlink="http://www.w3.org/1999/xlink" xmlns="http://www.w3.org/2000/svg">
  <defs>
    <linearGradient x1="0.5" y1="1" x2="0.5" y2="3.061617E-17" id="gradient_1">
      <stop offset="0" stop-color="#5EA3FF" />
      <stop offset="1" stop-color="#FFFFFF" />
    </linearGradient>
  </defs>
  <path d="M125.448 2.75688L126.285 3.30198C126.979 3.75411 127.908 3.55788 128.36 2.86371C128.812 2.16953 128.616 1.24028 127.922 0.788157L127.086 0.24347C126.392 -0.208829 125.463 -0.012844 125.01 0.681215C124.558 1.37527 124.754 2.30458 125.448 2.75688ZM235.415 74.1299L236.28 74.6132C237.002 75.0196 237.917 74.7639 238.323 74.042C238.73 73.3201 238.474 72.4054 237.752 71.999L236.872 71.5073C236.148 71.105 235.234 71.366 234.832 72.0902C234.43 72.8144 234.691 73.7276 235.415 74.1299ZM125.463 104.436L124.519 104.764C123.737 105.036 123.323 105.891 123.595 106.674C123.867 107.456 124.722 107.87 125.504 107.598L126.447 107.27C127.23 106.999 127.644 106.144 127.372 105.361C127.101 104.579 126.246 104.164 125.463 104.436ZM1.97063 148.046L1.01904 148.367C0.234427 148.633 -0.186109 149.484 0.0797453 150.269C0.345599 151.053 1.19717 151.474 1.98178 151.208L2.92397 150.891C3.70946 150.627 4.1328 149.777 3.86954 148.992C3.60628 148.206 2.75611 147.783 1.97063 148.046ZM23.6985 201.282L24.6838 201.38C25.5081 201.463 26.2433 200.861 26.3258 200.037C26.4084 199.213 25.8071 198.478 24.9828 198.395L23.9977 198.296C23.1734 198.214 22.4382 198.815 22.3556 199.639C22.2729 200.464 22.8742 201.199 23.6985 201.282ZM139.869 213.662L140.858 213.814C141.677 213.939 142.443 213.377 142.568 212.558C142.693 211.739 142.131 210.974 141.312 210.848L140.325 210.697C139.506 210.571 138.74 211.133 138.615 211.951C138.489 212.77 139.05 213.536 139.869 213.662ZM270.171 230.985C270.475 231.046 270.76 231.113 271.029 231.189C271.827 231.413 272.655 230.949 272.88 230.151C273.104 229.354 272.64 228.526 271.842 228.301C271.494 228.203 271.133 228.118 270.755 228.043C269.942 227.882 269.153 228.41 268.991 229.222C268.83 230.035 269.358 230.824 270.171 230.985ZM167.756 286.501L166.78 286.695C165.967 286.855 165.438 287.644 165.598 288.457C165.759 289.27 166.547 289.799 167.36 289.638L168.344 289.443C169.157 289.281 169.684 288.49 169.521 287.678C169.359 286.866 168.569 286.339 167.756 286.501ZM38.4195 307.329L37.4454 307.575C36.6426 307.78 36.1577 308.596 36.3624 309.399C36.567 310.202 37.3836 310.687 38.1864 310.482L39.1512 310.238C39.9546 310.036 40.4421 309.221 40.24 308.417C40.038 307.614 39.2229 307.127 38.4195 307.329ZM23.7794 366.951L24.7154 367.322C25.4862 367.625 26.3572 367.247 26.6608 366.476C26.9644 365.705 26.5857 364.834 25.8149 364.531L24.8896 364.164C24.1199 363.857 23.2475 364.233 22.941 365.002C22.6344 365.772 23.0098 366.645 23.7794 366.951ZM152.54 389.809L153.54 389.788C154.368 389.769 155.024 389.083 155.005 388.254C154.986 387.426 154.3 386.77 153.471 386.789L152.48 386.81C151.652 386.826 150.994 387.511 151.01 388.339C151.027 389.168 151.712 389.826 152.54 389.809ZM280.16 361.458L281.069 361.024C281.815 360.666 282.13 359.77 281.772 359.023C281.414 358.276 280.518 357.961 279.771 358.32L278.873 358.748C278.125 359.103 277.806 359.998 278.161 360.746C278.517 361.495 279.412 361.813 280.16 361.458ZM221.748 294.866L220.816 294.501C220.045 294.2 219.175 294.581 218.874 295.353C218.572 296.124 218.954 296.994 219.725 297.295L220.652 297.658C221.423 297.961 222.294 297.581 222.596 296.81C222.899 296.039 222.519 295.168 221.748 294.866ZM96.4837 256.323L95.5289 256.03C94.7369 255.787 93.8978 256.232 93.6548 257.024C93.4117 257.816 93.8567 258.655 94.6487 258.898L95.6058 259.191C96.398 259.434 97.2367 258.988 97.4791 258.196C97.7215 257.404 97.2759 256.565 96.4837 256.323ZM16.7217 201.941L17.7107 201.806C18.5316 201.695 19.1068 200.939 18.9953 200.118C18.8839 199.297 18.1281 198.722 17.3072 198.833L16.3128 198.969C15.4921 199.082 14.9184 199.839 15.0313 200.66C15.1442 201.48 15.901 202.054 16.7217 201.941ZM145.531 178.151L146.466 177.77C147.232 177.456 147.599 176.58 147.284 175.813C146.97 175.047 146.094 174.68 145.327 174.995L144.408 175.369C143.64 175.679 143.268 176.553 143.578 177.321C143.888 178.09 144.762 178.461 145.531 178.151ZM215.754 79.2938C215.648 78.9674 215.54 78.6419 215.428 78.3173C215.159 77.534 214.305 77.1175 213.522 77.3872C212.738 77.6568 212.322 78.5104 212.592 79.2937C212.697 79.6004 212.8 79.908 212.899 80.2164C213.154 81.0047 214 81.4371 214.788 81.1824C215.576 80.9276 216.009 80.082 215.754 79.2938ZM104.669 18.36L103.737 18.0258C102.958 17.7436 102.098 18.1462 101.816 18.925C101.534 19.7039 101.936 20.5641 102.715 20.8463L103.666 21.1873C104.447 21.4643 105.304 21.056 105.581 20.2752C105.858 19.4945 105.45 18.637 104.669 18.36Z" id="Path-4" fill="url(#gradient_1)" stroke="none" />
</svg>