<?xml version="1.0" encoding="utf-8"?>
<svg width="1888px" height="538px" viewBox="0 0 1888 538" version="1.1" xmlns:xlink="http://www.w3.org/1999/xlink" xmlns="http://www.w3.org/2000/svg">
  <path d="M246.978 287.577L247.928 287.913L248.595 286.028L247.645 285.692L246.978 287.577ZM342.149 321.361L343.095 321.697L343.764 319.812L342.818 319.476L342.149 321.361ZM437.368 355.039L438.309 355.37L438.973 353.483L438.032 353.152L437.368 355.039ZM532.742 388.326L533.694 388.655L534.347 386.765L533.395 386.436L532.742 388.326ZM628.366 420.903L629.312 421.22L629.946 419.323L629.001 419.007L628.366 420.903ZM724.432 452.141L725.386 452.439L725.982 450.53L725.029 450.232L724.432 452.141ZM822.434 469.331C822.717 469.127 822.995 468.916 823.269 468.698L822.022 467.134C821.773 467.332 821.52 467.524 821.264 467.71L822.434 469.331ZM792.829 378.776L792.232 377.974L790.628 379.169L791.224 379.97L792.829 378.776ZM726.483 302.575L725.769 301.883L724.378 303.319L725.089 304.009L726.483 302.575ZM647.961 238.951L647.129 238.399L646.025 240.066L646.854 240.616L647.961 238.951ZM559.305 190.453L558.392 190.041L557.569 191.864L558.481 192.275L559.305 190.453ZM464.216 156.84L464.766 154.917L464.145 154.737C464.038 154.705 463.93 154.673 463.819 154.64L463.244 156.555L463.902 156.75C464.008 156.781 464.113 156.811 464.216 156.84ZM486.478 218.123L487.118 218.896L488.659 217.621L488.02 216.848L486.478 218.123ZM553.005 294.182L553.685 294.916L555.151 293.555L554.472 292.823L553.005 294.182ZM559.514 265.568L559.029 264.692L557.279 265.659L557.763 266.535L559.514 265.568ZM509.408 180.909L509.551 180.367L509.322 179.45L507.382 179.934L507.548 180.6L508.518 180.357L507.553 180.097L507.468 180.42L509.408 180.909ZM576.368 245.34L577.061 246.06L578.502 244.673L577.808 243.953L576.368 245.34ZM560.107 245.9L559.285 245.326L558.14 246.966L558.962 247.54L560.107 245.9ZM472.542 195.582L471.602 195.228L470.901 197.101L471.832 197.452L472.542 195.582ZM518.78 224.243L519.731 224.556L520.355 222.656L519.407 222.344L518.78 224.243ZM617.565 245.539L618.565 245.672L618.827 243.689L617.829 243.557L617.565 245.539ZM718.219 254.494L719.217 254.548L719.325 252.551L718.329 252.497L718.219 254.494ZM819.193 257.92L820.194 257.939L820.231 255.939L819.231 255.92L819.193 257.92ZM920.181 259.535L921.182 259.547L921.205 257.547L920.204 257.535L920.181 259.535ZM1021.2 259.366L1022.2 259.355L1022.18 257.355L1021.18 257.366L1021.2 259.366ZM1121.82 251.016L1122.8 250.818L1122.4 248.858L1121.42 249.055L1121.82 251.016ZM1108.24 200.729L1107.36 200.271L1106.44 202.049L1107.33 202.506L1108.24 200.729ZM1016.11 159.343L1015.21 158.927L1014.37 160.745L1015.28 161.163L1016.11 159.343ZM1055.9 145.174L1056.9 145.163L1056.88 143.163L1055.88 143.174L1055.9 145.174ZM1156.87 145.227L1157.86 145.249L1157.91 143.249L1156.91 143.228L1156.87 145.227ZM1257.1 155.622L1258.09 155.763L1258.38 153.783L1257.38 153.642L1257.1 155.622ZM1356.78 171.68L1357.76 171.856L1358.11 169.887L1357.13 169.711L1356.78 171.68ZM1456.17 189.613L1457.16 189.791L1457.51 187.823L1456.53 187.645L1456.17 189.613ZM1555.09 209.789L1556.07 210.003L1556.5 208.05L1555.52 207.835L1555.09 209.789ZM1653.18 233.602L1654.14 233.875L1654.68 231.951L1653.72 231.678L1653.18 233.602ZM1749.99 262.31L1750.95 262.599L1751.52 260.684L1750.57 260.395L1749.99 262.31ZM1846.55 291.905L1847.5 292.203L1848.1 290.295L1847.14 289.996L1846.55 291.905ZM1933.4 315.1L1932.42 314.894L1932.01 316.852L1932.99 317.057L1933.4 315.1ZM1833.63 300.077L1832.63 299.966L1832.41 301.954L1833.4 302.065L1833.63 300.077ZM1733.08 290.341L1732.08 290.251L1731.9 292.243L1732.9 292.333L1733.08 290.341ZM1632.48 281.361L1631.48 281.271L1631.3 283.263L1632.3 283.353L1632.48 281.361ZM1532.03 271.273L1531.04 271.14L1530.77 273.122L1531.77 273.256L1532.03 271.273ZM1469.79 255.008L1470.78 254.928L1470.62 252.934L1469.62 253.015L1469.79 255.008ZM1570.7 253.664L1571.71 253.66L1571.7 251.66L1570.69 251.664L1570.7 253.664ZM1671.69 253.272L1672.69 253.269L1672.69 251.269L1671.69 251.272L1671.69 253.272ZM1772.68 253.125L1773.69 253.125L1773.69 251.125L1772.68 251.125L1772.68 253.125ZM1873.67 253.317L1874.68 253.321L1874.68 251.321L1873.68 251.317L1873.67 253.317ZM1974.66 253.943L1975.66 253.952L1975.68 251.952L1974.68 251.943L1974.66 253.943ZM2028.94 280L2028.14 280.595L2029.33 282.202L2030.13 281.604L2028.94 280ZM1944.32 334.848L1943.45 335.341L1944.43 337.085L1945.31 336.59L1944.32 334.848ZM1853.23 377.945L1852.29 378.304L1853.01 380.17L1853.95 379.81L1853.23 377.945ZM1756.75 406.978L1755.78 407.19L1756.2 409.145L1757.18 408.932L1756.75 406.978ZM1657.09 419.33C1656.76 419.294 1656.44 419.256 1656.11 419.216L1655.87 421.202L1656.88 421.318L1657.09 419.33ZM1619.98 340.064L1620 339.071L1618 339.021L1617.98 340.029L1619.98 340.064ZM1668.94 254.619L1669.63 253.896L1668.18 252.519L1667.49 253.251L1668.94 254.619ZM1750.35 237.799C1750.42 238.113 1750.49 238.433 1750.56 238.757L1752.52 238.329C1752.44 237.994 1752.37 237.664 1752.29 237.339L1750.35 237.799ZM1720.69 325.524L1719.89 326.108L1721.06 327.731L1721.87 327.14L1720.69 325.524ZM1629.16 365.967L1628.2 366.203L1628.67 368.147L1629.64 367.909L1629.16 365.967ZM1529.29 378.175L1528.3 378.204L1528.35 380.203L1529.35 380.174L1529.29 378.175ZM1428.81 374.713L1427.85 374.464L1427.34 376.398L1428.32 376.651L1428.81 374.713ZM1339.22 329.569L1338.4 329.011L1337.27 330.66L1338.1 331.226L1339.22 329.569ZM1292.83 246.573L1292.86 245.579L1290.87 245.508L1290.83 246.513L1292.83 246.573ZM1366.38 194.314L1367.37 194.182L1367.11 192.199L1366.11 192.333L1366.38 194.314ZM1467.07 191.947L1468.07 191.95L1468.07 189.95L1467.08 189.947L1467.07 191.947ZM1564.29 214.211L1565.22 214.577L1565.95 212.717L1565.02 212.35L1564.29 214.211ZM1654.43 259.052L1655.28 259.58L1656.34 257.881L1655.48 257.352L1654.43 259.052ZM1730.12 324.065L1730.64 324.904L1732.34 323.852L1731.81 322.995L1730.12 324.065ZM1715.97 414.229L1715.26 414.923L1716.65 416.359L1717.37 415.654L1715.97 414.229ZM1629.29 464.096L1628.37 464.478L1629.13 466.327L1630.06 465.944L1629.29 464.096ZM1532.36 489.735L1531.37 489.832L1531.56 491.823L1532.56 491.725L1532.36 489.735ZM1431.55 493.026L1430.55 493.022L1430.54 495.022L1431.54 495.026L1431.55 493.026ZM1339.45 462.089L1338.7 461.428L1337.37 462.921L1338.13 463.589L1339.45 462.089ZM1295.38 375.05L1295.3 374.061L1293.31 374.21L1293.39 375.213L1295.38 375.05ZM1330.89 285.349L1332.07 286.962L1332.87 286.379L1331.71 284.755C1331.43 284.952 1331.16 285.15 1330.89 285.349ZM1427.5 262.222L1428.49 262.26L1428.57 260.261L1427.57 260.223L1427.5 262.222ZM1518.46 300.163L1519.28 300.734L1520.42 299.093L1519.6 298.521L1518.46 300.163ZM1600.63 358.846L1601.43 359.435L1602.61 357.823L1601.81 357.233L1600.63 358.846ZM1680.95 420.007L1681.73 420.629L1682.98 419.064L1682.19 418.441L1680.95 420.007ZM1758.33 484.803L1759.07 485.474L1760.41 483.993L1759.67 483.32L1758.33 484.803ZM1815.27 564.777C1815.28 565.102 1815.29 565.425 1815.29 565.746L1817.29 565.72C1817.29 565.378 1817.28 565.035 1817.26 564.69L1815.27 564.777ZM1741.61 623.162L1740.65 623.419L1741.16 625.352L1742.13 625.093L1741.61 623.162ZM1641.72 633.997L1640.72 633.997L1640.71 635.997L1641.72 635.997L1641.72 633.997ZM1555.65 600.726C1555.58 600.405 1555.51 600.084 1555.45 599.764L1553.49 600.163C1553.55 600.494 1553.62 600.824 1553.7 601.155L1555.65 600.726ZM1593.75 512.521L1594.41 511.774L1592.92 510.445L1592.25 511.193L1593.75 512.521ZM1665.28 441.5L1666.04 440.845L1664.73 439.333L1663.97 439.99L1665.28 441.5ZM1746.11 381.325L1746.96 380.792L1745.9 379.096L1745.05 379.631L1746.11 381.325ZM1835.73 335.391L1836.66 335.018L1835.91 333.162L1834.98 333.536L1835.73 335.391ZM1932.22 306.648L1933.2 306.456L1932.81 304.493L1931.83 304.686L1932.22 306.648ZM2032.49 296.136L2033.49 296.065L2033.35 294.07L2032.35 294.141L2032.49 296.136ZM2022.66 255.732L2021.89 255.102L2020.62 256.646L2021.4 257.283L2022.66 255.732ZM1947.89 187.952L1947.16 187.272L1945.79 188.731L1946.52 189.412L1947.89 187.952ZM1874.44 118.618L1873.71 117.933L1872.34 119.39L1873.07 120.074L1874.44 118.618ZM1800.38 49.9035L1799.63 49.2425L1798.31 50.746L1799.06 51.405L1800.38 49.9035ZM1713.8 0.00484155C1713.46 3.03761e-06 1713.12 -0.00120689 1712.78 0.00120287L1712.8 2.00115C1713.12 1.99884 1713.45 2 1713.77 2.00464L1713.8 0.00484155ZM1649.95 71.7984L1649.51 72.6915L1651.3 73.5829L1651.74 72.6837L1649.95 71.7984ZM1587.27 150.08L1586.59 150.809L1588.05 152.178L1588.73 151.448L1587.27 150.08ZM1510.76 215.437L1509.95 216.016L1511.11 217.647L1511.93 217.066L1510.76 215.437ZM1423.99 266.568L1423.09 266.992L1423.94 268.802L1424.84 268.376L1423.99 266.568ZM1328.97 299.514L1328 299.733L1328.44 301.685L1329.42 301.464L1328.97 299.514ZM1229.04 312.018L1228.04 312.054L1228.11 314.052L1229.11 314.016L1229.04 312.018ZM1130.05 298.674L1129.11 298.34L1128.44 300.223L1129.38 300.56L1130.05 298.674ZM1039.39 254.82L1038.52 254.326L1037.54 256.066L1038.41 256.559L1039.39 254.82ZM952.571 203.262L951.715 202.739L950.672 204.446L951.527 204.969L952.571 203.262ZM865.805 151.524L864.934 151.032L863.951 152.774L864.821 153.265L865.805 151.524ZM768.932 134.898C768.67 135.108 768.406 135.326 768.142 135.55L769.433 137.077C769.685 136.864 769.936 136.657 770.185 136.457L768.932 134.898ZM717.639 221.712L717.242 222.631L719.078 223.423L719.475 222.507L717.639 221.712ZM661.087 303.742L660.351 304.413L661.695 305.894L662.437 305.218L661.087 303.742ZM574.224 352.398L573.259 352.637L573.735 354.579L574.711 354.337L574.224 352.398ZM473.852 358.644L472.856 358.633L472.831 360.633L473.834 360.644L473.852 358.644ZM376.699 335.127L375.774 334.753L375.022 336.606L375.949 336.981L376.699 335.127ZM284.626 293.751L283.716 293.334L282.883 295.152L283.792 295.569L284.626 293.751ZM191.265 255.123L190.335 254.754L189.598 256.614L190.528 256.982L191.265 255.123ZM97.054 218.66L96.1149 218.318L95.4326 220.198L96.3687 220.539L97.054 218.66ZM1.96106 185.685C1.69323 185.512 1.43653 185.334 1.19084 185.152L0 186.759C0.280055 186.966 0.571422 187.168 0.87417 187.364L1.96106 185.685ZM60.1314 135.104L61.1252 135.041L61.0032 133.045L60.0001 133.108L60.1314 135.104ZM159.137 147.094L160.066 147.454L160.79 145.59L159.855 145.228L159.137 147.094ZM250.376 190.063L251.261 190.527L252.19 188.756L251.304 188.291L250.376 190.063ZM339.089 238.27L339.968 238.755L340.934 237.003L340.054 236.518L339.089 238.27ZM427.138 287.734L428.008 288.229L428.998 286.491L428.128 285.996L427.138 287.734ZM486.529 346.275C486.268 346.463 486.002 346.65 485.73 346.836L486.861 348.486C487.146 348.29 487.425 348.094 487.699 347.897L486.529 346.275ZM391.127 376.109L390.137 376.226L390.367 378.213L391.366 378.095L391.127 376.109ZM301.691 346.822L301.116 346.023L299.485 347.18L300.074 347.999L301.691 346.822ZM279.858 250.507L279.869 249.508L277.869 249.485L277.858 250.487L279.858 250.507ZM294.986 152.274L295.452 151.397L293.689 150.452L293.216 151.342L294.986 152.274ZM372.095 175.896L372.715 176.676L374.283 175.436L373.66 174.65L372.095 175.896ZM419.039 263.844L419.278 264.81L421.22 264.335L420.979 263.359L419.039 263.844ZM426.836 364.009L426.826 365.009L428.825 365.032L428.836 364.029L426.836 364.009ZM400.594 459.275L400.102 460.14L401.838 461.133L402.335 460.259L400.594 459.275ZM323.587 514.515L325.579 514.344L325.575 514.278L325.543 513.384L323.544 513.458L323.577 514.351C323.579 514.408 323.582 514.461 323.587 514.515ZM357.097 422.805L357.655 421.977L355.998 420.857L355.438 421.688L357.097 422.805ZM421.181 345.132L421.887 344.423L420.47 343.011L419.762 343.723L421.181 345.132ZM499.356 281.875L500.202 281.343L499.14 279.648L498.289 280.183L499.356 281.875ZM590.813 240.8L591.789 240.616L591.425 238.649L590.435 238.836L590.813 240.8ZM691.129 234.076L692.128 234.097L692.17 232.098L691.17 232.077L691.129 234.076ZM787.381 258.506L788.298 258.906L789.096 257.072L788.18 256.673L787.381 258.506ZM876.416 305.655L877.264 306.18L878.319 304.481L877.468 303.954L876.416 305.655ZM958.139 364.736L958.921 365.359L960.168 363.796L959.386 363.172L958.139 364.736ZM1032.29 433.054L1033.01 433.755L1034.41 432.323L1033.69 431.625L1032.29 433.054ZM1113.74 387.805L1114.56 387.246L1113.45 385.588L1112.62 386.149L1113.74 387.805ZM1201.51 338.61L1202.43 338.219L1201.64 336.379L1200.73 336.769L1201.51 338.61ZM1295.17 301.157L1296.12 300.862L1295.53 298.951L1294.58 299.249L1295.17 301.157ZM1394.26 283.357L1395.25 283.246L1395.03 281.258L1394.04 281.37L1394.26 283.357ZM1494.98 278.05L1495.98 278.035L1495.95 276.035L1494.95 276.05L1494.98 278.05ZM1596.02 276.59L1595.89 278.585L1596.88 278.655L1597.03 276.661C1596.69 276.635 1596.36 276.612 1596.02 276.59ZM1694.07 300.858L1695.03 301.135L1695.59 299.214L1694.62 298.936L1694.07 300.858ZM1790.85 329.675L1791.81 329.973L1792.4 328.064L1791.45 327.766L1790.85 329.675ZM1885.08 365.479L1885.99 365.888L1886.81 364.064L1885.9 363.654L1885.08 365.479ZM1973.04 414.169L1973.82 414.79L1975.07 413.224L1974.28 412.602L1973.04 414.169ZM1971.7 474.258L1970.71 474.409L1971.01 476.387L1972.01 476.234L1971.7 474.258ZM1871.85 469.633L1870.89 469.381L1870.38 471.315L1871.35 471.569L1871.85 469.633ZM1779.71 429.527L1778.83 429.043L1777.87 430.793L1778.74 431.277L1779.71 429.527ZM1712.21 360.698C1712.16 360.375 1712.12 360.05 1712.08 359.724L1710.1 359.954C1710.14 360.292 1710.18 360.628 1710.22 360.964L1712.21 360.698Z" transform="translate(-146.4082 -98.36444)" id="Path-3" fill="#FFFFFF" stroke="none" />
</svg>