<?xml version="1.0" encoding="utf-8"?>
<svg width="387px" height="120px" viewBox="0 0 387 120" version="1.1" xmlns:xlink="http://www.w3.org/1999/xlink" xmlns="http://www.w3.org/2000/svg">
  <defs>
    <filter filterUnits="userSpaceOnUse" color-interpolation-filters="sRGB" id="filter_1">
      <feFlood flood-opacity="0" result="BackgroundImageFix" />
      <feBlend mode="normal" in="SourceGraphic" in2="BackgroundImageFix" result="shape" />
      <feGaussianBlur stdDeviation="11.5" result="effect0_gaussianBlur" />
    </filter>
  </defs>
  <path d="M15.999 0L301.001 0Q301.394 0 301.786 0.0192715Q302.178 0.038543 302.569 0.0770395Q302.96 0.115536 303.349 0.173165Q303.737 0.230794 304.122 0.307416Q304.507 0.384039 304.888 0.47947Q305.269 0.574901 305.645 0.688911Q306.021 0.802922 306.391 0.935236Q306.761 1.06755 307.124 1.21785Q307.486 1.36815 307.841 1.53607Q308.196 1.704 308.543 1.88914Q308.889 2.07428 309.226 2.2762Q309.563 2.47812 309.889 2.69632Q310.216 2.91452 310.532 3.14848Q310.847 3.38245 311.151 3.63161Q311.454 3.88077 311.745 4.14452Q312.036 4.40828 312.314 4.686Q312.592 4.96372 312.855 5.25473Q313.119 5.54574 313.368 5.84934Q313.617 6.15294 313.851 6.46841Q314.085 6.78387 314.304 7.11043Q314.522 7.43699 314.724 7.77387Q314.926 8.11075 315.111 8.45712Q315.296 8.8035 315.464 9.15855Q315.632 9.51359 315.782 9.87645Q315.932 10.2393 316.065 10.6091Q316.197 10.9789 316.311 11.3547Q316.425 11.7306 316.52 12.1116Q316.616 12.4925 316.693 12.8777Q316.769 13.263 316.827 13.6515Q316.884 14.04 316.923 14.4308Q316.961 14.8217 316.981 15.214Q317 15.6062 317 15.999L317 34.001Q317 34.3938 316.981 34.786Q316.961 35.1783 316.923 35.5692Q316.884 35.96 316.827 36.3485Q316.769 36.737 316.693 37.1222Q316.616 37.5075 316.52 37.8884Q316.425 38.2694 316.311 38.6453Q316.197 39.0211 316.065 39.3909Q315.932 39.7607 315.782 40.1235Q315.632 40.4864 315.464 40.8414Q315.296 41.1965 315.111 41.5429Q314.926 41.8892 314.724 42.2261Q314.522 42.563 314.304 42.8896Q314.085 43.2161 313.851 43.5316Q313.617 43.847 313.368 44.1507Q313.119 44.4543 312.855 44.7453Q312.592 45.0363 312.314 45.314Q312.036 45.5917 311.745 45.8555Q311.454 46.1192 311.151 46.3684Q310.847 46.6175 310.532 46.8515Q310.216 47.0855 309.889 47.3037Q309.563 47.5219 309.226 47.7238Q308.889 47.9257 308.543 48.1109Q308.196 48.296 307.841 48.4639Q307.486 48.6318 307.124 48.7821Q306.761 48.9324 306.391 49.0648Q306.021 49.1971 305.645 49.3111Q305.269 49.4251 304.888 49.5205Q304.507 49.616 304.122 49.6926Q303.737 49.7692 303.349 49.8268Q302.96 49.8845 302.569 49.923Q302.178 49.9615 301.786 49.9807Q301.394 50 301.001 50L15.999 50Q15.6062 50 15.214 49.9807Q14.8217 49.9615 14.4308 49.923Q14.04 49.8845 13.6515 49.8268Q13.263 49.7692 12.8777 49.6926Q12.4925 49.616 12.1116 49.5205Q11.7306 49.4251 11.3547 49.3111Q10.9789 49.1971 10.6091 49.0648Q10.2393 48.9324 9.87645 48.7821Q9.51359 48.6318 9.15855 48.4639Q8.8035 48.296 8.45712 48.1109Q8.11075 47.9257 7.77387 47.7238Q7.43699 47.5219 7.11043 47.3037Q6.78387 47.0855 6.46841 46.8515Q6.15294 46.6175 5.84934 46.3684Q5.54574 46.1192 5.25473 45.8555Q4.96372 45.5917 4.686 45.314Q4.40828 45.0363 4.14452 44.7453Q3.88077 44.4543 3.63161 44.1507Q3.38245 43.847 3.14848 43.5316Q2.91452 43.2161 2.69632 42.8896Q2.47812 42.563 2.2762 42.2261Q2.07428 41.8892 1.88914 41.5429Q1.704 41.1965 1.53607 40.8414Q1.36815 40.4864 1.21785 40.1235Q1.06755 39.7607 0.935236 39.3909Q0.802922 39.0211 0.688911 38.6453Q0.574901 38.2694 0.47947 37.8884Q0.384039 37.5075 0.307416 37.1222Q0.230794 36.737 0.173165 36.3485Q0.115536 35.96 0.0770395 35.5692Q0.038543 35.1783 0.0192715 34.786Q0 34.3938 0 34.001L0 15.999Q0 15.6062 0.0192715 15.214Q0.038543 14.8217 0.0770395 14.4308Q0.115536 14.04 0.173165 13.6515Q0.230794 13.263 0.307416 12.8777Q0.384039 12.4925 0.47947 12.1116Q0.574901 11.7306 0.688911 11.3547Q0.802922 10.9789 0.935236 10.6091Q1.06755 10.2393 1.21785 9.87645Q1.36815 9.51359 1.53607 9.15855Q1.704 8.8035 1.88914 8.45712Q2.07428 8.11075 2.2762 7.77387Q2.47812 7.43699 2.69632 7.11043Q2.91452 6.78387 3.14848 6.46841Q3.38245 6.15294 3.63161 5.84934Q3.88077 5.54574 4.14452 5.25473Q4.40828 4.96372 4.686 4.686Q4.96372 4.40828 5.25473 4.14452Q5.54574 3.88077 5.84934 3.63161Q6.15294 3.38245 6.46841 3.14848Q6.78387 2.91452 7.11043 2.69632Q7.43699 2.47812 7.77387 2.2762Q8.11075 2.07428 8.45712 1.88914Q8.8035 1.704 9.15855 1.53607Q9.51359 1.36815 9.87645 1.21785Q10.2393 1.06755 10.6091 0.935236Q10.9789 0.802922 11.3547 0.688911Q11.7306 0.574901 12.1116 0.47947Q12.4925 0.384039 12.8777 0.307416Q13.263 0.230794 13.6515 0.173165Q14.04 0.115536 14.4308 0.0770395Q14.8217 0.038543 15.214 0.0192715Q15.6062 0 15.999 0L15.999 0Z" transform="translate(35 35)" id="Rectangle" fill="#23334A" fill-rule="evenodd" stroke="none" filter="url(#filter_1)" />
</svg>