<?xml version="1.0" encoding="utf-8"?>
<svg width="1836px" height="539px" viewBox="0 0 1836 539" version="1.1" xmlns:xlink="http://www.w3.org/1999/xlink" xmlns="http://www.w3.org/2000/svg">
  <path d="M196.54 244.516L197.49 244.852C198.531 245.221 199.674 244.675 200.042 243.634C200.411 242.593 199.865 241.45 198.824 241.081L197.874 240.745C196.833 240.377 195.69 240.922 195.322 241.963C194.953 243.005 195.499 244.148 196.54 244.516ZM779.406 401.264C779.339 400.932 779.268 400.596 779.194 400.257C778.958 399.177 777.892 398.494 776.813 398.729C775.734 398.965 775.05 400.031 775.286 401.11C775.356 401.43 775.422 401.746 775.486 402.059C775.705 403.142 776.761 403.841 777.843 403.622C778.926 403.402 779.626 402.347 779.406 401.264ZM468.021 212.895L468.68 213.649C469.407 214.481 470.67 214.565 471.502 213.838C472.333 213.111 472.418 211.847 471.69 211.016L471.033 210.264C470.306 209.432 469.043 209.347 468.211 210.073C467.379 210.8 467.294 212.064 468.021 212.895ZM443.785 172.429L444.723 172.787C445.755 173.18 446.911 172.661 447.303 171.629C447.696 170.596 447.177 169.441 446.145 169.048L445.213 168.693C444.181 168.299 443.025 168.815 442.631 169.847C442.236 170.879 442.753 172.035 443.785 172.429ZM1070.93 208.19L1071.91 207.992C1072.99 207.773 1073.69 206.719 1073.48 205.636C1073.26 204.553 1072.2 203.853 1071.12 204.071L1070.14 204.268C1069.06 204.486 1068.36 205.541 1068.57 206.624C1068.79 207.707 1069.85 208.408 1070.93 208.19ZM1330.12 132.918L1331.1 133.098C1332.19 133.295 1333.23 132.575 1333.43 131.488C1333.62 130.402 1332.9 129.36 1331.82 129.162L1330.83 128.983C1329.75 128.785 1328.7 129.506 1328.51 130.592C1328.31 131.679 1329.03 132.721 1330.12 132.918ZM1835.26 261.934L1834.27 261.788C1833.17 261.627 1832.16 262.382 1832 263.475C1831.83 264.568 1832.59 265.584 1833.68 265.745L1834.67 265.891C1835.76 266.052 1836.78 265.297 1836.94 264.204C1837.1 263.111 1836.35 262.095 1835.26 261.934ZM1594.6 210.353L1595.6 210.349C1596.7 210.346 1597.59 209.447 1597.59 208.342C1597.59 207.238 1596.69 206.346 1595.58 206.349L1594.58 206.353C1593.48 206.357 1592.58 207.255 1592.59 208.36C1592.59 209.464 1593.49 210.357 1594.6 210.353ZM1804.63 332.285L1803.69 332.648C1802.66 333.047 1802.15 334.206 1802.55 335.235C1802.95 336.265 1804.11 336.776 1805.14 336.377L1806.08 336.012C1807.11 335.611 1807.62 334.452 1807.22 333.422C1806.81 332.393 1805.65 331.884 1804.63 332.285ZM1650.8 292.942L1649.94 293.426C1648.97 293.964 1648.63 295.182 1649.16 296.147C1649.7 297.112 1650.92 297.458 1651.88 296.92L1652.76 296.428C1653.73 295.886 1654.07 294.667 1653.52 293.704C1652.98 292.742 1651.76 292.4 1650.8 292.942ZM1363.98 148.652L1364.98 148.642C1366.09 148.632 1366.97 147.728 1366.96 146.623C1366.95 145.519 1366.05 144.632 1364.94 144.642L1363.94 144.652C1362.84 144.663 1361.95 145.567 1361.96 146.672C1361.97 147.776 1362.88 148.663 1363.98 148.652ZM1509.75 440.983L1508.77 441.156C1507.68 441.347 1506.95 442.383 1507.14 443.471C1507.33 444.559 1508.37 445.287 1509.46 445.096L1510.45 444.921C1511.54 444.727 1512.26 443.688 1512.07 442.601C1511.87 441.514 1510.83 440.789 1509.75 440.983ZM1465.32 255.275L1466.14 255.841C1467.05 256.47 1468.29 256.242 1468.92 255.334C1469.55 254.425 1469.32 253.18 1468.41 252.551L1467.59 251.982C1466.68 251.355 1465.43 251.584 1464.81 252.493C1464.18 253.402 1464.41 254.648 1465.32 255.275ZM1569.67 588.69L1568.68 588.663C1567.57 588.633 1566.65 589.503 1566.62 590.607C1566.59 591.712 1567.46 592.631 1568.57 592.661L1569.57 592.688C1570.67 592.717 1571.59 591.846 1571.62 590.742C1571.65 589.637 1570.78 588.719 1569.67 588.69ZM1928.68 257.412L1929.67 257.317C1930.77 257.212 1931.58 256.236 1931.47 255.137C1931.37 254.037 1930.39 253.23 1929.29 253.335L1928.29 253.43C1927.19 253.536 1926.39 254.513 1926.49 255.612C1926.6 256.712 1927.58 257.517 1928.68 257.412ZM1611.25 1.13702L1610.82 2.04269C1610.35 3.04015 1610.77 4.23341 1611.77 4.70791C1612.76 5.18242 1613.96 4.75849 1614.43 3.76103L1614.86 2.86391C1615.34 1.86758 1614.92 0.67332 1613.92 0.196452C1612.92 -0.280417 1611.73 0.140688 1611.25 1.13702ZM1084.04 255.032L1083.1 254.712C1082.06 254.353 1080.92 254.91 1080.56 255.954C1080.2 256.999 1080.76 258.137 1081.8 258.495L1082.75 258.82C1083.8 259.175 1084.94 258.615 1085.29 257.569C1085.65 256.523 1085.09 255.387 1084.04 255.032ZM594.324 272.369L593.534 272.969C592.653 273.635 592.479 274.889 593.146 275.77C593.812 276.651 595.066 276.825 595.947 276.159L596.75 275.549C597.629 274.879 597.797 273.624 597.127 272.746C596.457 271.867 595.202 271.699 594.324 272.369ZM3.60093 159.227L2.66351 158.9C1.62139 158.533 0.479766 159.081 0.113622 160.124C-0.252523 161.166 0.295463 162.307 1.33758 162.673L2.28955 163.006C3.33307 163.368 4.47258 162.816 4.8347 161.772C5.19683 160.729 4.64445 159.589 3.60093 159.227ZM437.745 279.974C437.994 280.169 438.239 280.366 438.477 280.565C439.327 281.27 440.588 281.153 441.294 280.304C442 279.454 441.883 278.193 441.033 277.487C440.764 277.264 440.489 277.042 440.208 276.823C439.338 276.143 438.081 276.297 437.401 277.167C436.721 278.037 436.874 279.294 437.745 279.974ZM366.707 215.285L366.967 216.24C367.254 217.307 368.352 217.938 369.419 217.651C370.485 217.363 371.117 216.265 370.829 215.199L370.564 214.226C370.271 213.16 369.171 212.534 368.106 212.827C367.041 213.119 366.414 214.22 366.707 215.285ZM466.883 228.538L467.753 228.051C468.718 227.513 469.064 226.295 468.526 225.331C467.988 224.366 466.77 224.02 465.805 224.558L464.926 225.049C463.963 225.59 463.62 226.809 464.16 227.772C464.701 228.735 465.92 229.078 466.883 228.538ZM1019.85 378.266L1020.58 377.593C1021.4 376.848 1021.45 375.583 1020.71 374.768C1019.97 373.952 1018.7 373.895 1017.88 374.64L1017.14 375.317C1016.33 376.063 1016.27 377.328 1017.02 378.143C1017.77 378.957 1019.03 379.012 1019.85 378.266ZM1613.92 249.27L1614.87 249.535C1615.94 249.831 1617.04 249.209 1617.34 248.145C1617.63 247.081 1617.01 245.978 1615.95 245.681L1614.98 245.413C1613.91 245.12 1612.81 245.746 1612.52 246.811C1612.23 247.876 1612.85 248.977 1613.92 249.27ZM1735.34 387.534L1734.46 387.055C1733.49 386.524 1732.28 386.879 1731.75 387.848C1731.22 388.817 1731.57 390.032 1732.54 390.563L1733.42 391.044C1734.39 391.573 1735.6 391.217 1736.13 390.248C1736.66 389.279 1736.31 388.063 1735.34 387.534Z" transform="matrix(-1 0 0 1 1835.1763 -54.360443)" id="Path-3-Copy" fill="#FFFFFF" stroke="none" />
</svg>




